<?xml version="1.0" standalone="no"?>
<!DOCTYPE svg PUBLIC "-//W3C//DTD SVG 20010904//EN"
 "http://www.w3.org/TR/2001/REC-SVG-20010904/DTD/svg10.dtd">
<svg version="1.0" xmlns="http://www.w3.org/2000/svg"
 width="700.000000pt" height="700.000000pt" viewBox="0 0 700.000000 700.000000"
 preserveAspectRatio="xMidYMid meet">
<metadata>
Created by potrace 1.11, written by Peter Selinger 2001-2013
</metadata>
<g transform="translate(0.000000,700.000000) scale(0.100000,-0.100000)"
fill="#000000" stroke="none">
<path d="M1046 6990 c-70 -22 -131 -87 -150 -164 -8 -30 -11 -973 -11 -3212
l1 -3170 27 -55 c30 -59 69 -95 124 -114 33 -11 38 -19 55 -75 27 -87 101
-161 183 -186 175 -50 353 62 374 237 1 3 404 6 896 6 l894 0 7 -31 c10 -47
49 -118 81 -148 16 -15 51 -39 78 -52 100 -49 251 -20 327 62 41 44 70 105 77
163 1 3 444 6 986 6 l984 0 7 -31 c31 -143 161 -237 307 -222 129 13 210 87
253 230 7 21 20 32 55 46 98 37 178 126 198 220 9 41 11 561 9 2085 l-3 2030
-23 49 c-29 60 -84 115 -148 147 l-49 24 -1187 3 -1188 2 0 991 c0 969 0 991
-20 1034 -11 24 -35 58 -53 75 -67 63 15 60 -1596 59 -806 0 -1479 -5 -1495
-9z"/>
<path d="M4529 6129 c-82 -30 -57 -159 31 -159 60 0 102 63 77 117 -8 18 -64
55 -79 52 -1 0 -15 -5 -29 -10z"/>
<path d="M4851 5635 c-37 -97 -109 -174 -185 -195 -46 -13 -62 -30 -28 -30 63
-1 168 -90 197 -168 24 -63 31 -69 39 -31 15 78 100 165 192 196 l48 16 -40
12 c-87 26 -157 91 -193 182 l-19 48 -11 -30z"/>
<path d="M5689 5227 c-43 -33 -49 -84 -15 -123 31 -37 84 -38 122 -3 22 20 25
30 21 64 -4 24 -14 47 -27 57 -25 21 -78 23 -101 5z"/>
<path d="M350 3042 c-14 -11 -22 -31 -25 -59 -4 -55 -8 -60 -50 -58 -49 3 -85
-31 -85 -80 0 -46 26 -69 87 -75 46 -5 46 -5 48 -45 2 -54 11 -71 44 -85 32
-13 74 -5 93 17 7 8 15 36 18 62 5 45 6 46 42 47 48 1 85 26 93 63 12 54 -28
94 -95 96 -34 1 -35 2 -41 50 -9 76 -75 111 -129 67z"/>
<path d="M485 2235 c-42 -41 -33 -105 17 -131 38 -19 74 -11 104 23 65 76 -51
179 -121 108z"/>
</g>
</svg>
