<svg height="480pt" viewBox="-4 0 480 480" width="480pt" xmlns="http://www.w3.org/2000/svg"><path d="m432 0h-240c-22.082031.0273438-39.972656 17.917969-40 40v248h-24c-22.082031.027344-39.972656 17.917969-40 40v96c0 13.253906-10.746094 24-24 24s-24-10.746094-24-24v-185.136719c14.085938-3.636719 23.945312-16.316406 24-30.863281v-24c0-4.417969-3.582031-8-8-8v-16h-16v16h-16v-16h-16v16c-4.417969 0-8 3.582031-8 8v24c.0546875 14.546875 9.914062 27.226562 24 30.863281v185.136719c0 22.089844 17.910156 40 40 40s40-17.910156 40-40v-96c0-13.253906 10.746094-24 24-24h24v104c.027344 22.082031 17.917969 39.972656 40 40v24c0 4.417969 3.582031 8 8 8h48c4.417969 0 8-3.582031 8-8v-24h112v24c0 4.417969 3.582031 8 8 8h48c4.417969 0 8-3.582031 8-8v-24c22.082031-.027344 39.972656-17.917969 40-40v-368c-.027344-22.082031-17.917969-39.9726562-40-40zm-416 208v-16h32v16c0 8.835938-7.164062 16-16 16s-16-7.164062-16-16zm176-192h240c13.253906 0 24 10.746094 24 24v96h-288v-96c0-13.253906 10.746094-24 24-24zm48 448h-32v-16h32zm176 0h-32v-16h32zm16-32h-240c-13.253906 0-24-10.746094-24-24v-256h288v256c0 13.253906-10.746094 24-24 24zm0 0"/><path d="m408 56h16v48h-16zm0 0"/><path d="m408 200h16v64h-16zm0 0"/><path d="m200 376h-16v24c0 8.835938 7.164062 16 16 16h24v-16h-24zm0 0"/><path d="m240 400h16v16h-16zm0 0"/></svg>