<svg id="Layer_1" enable-background="new 0 0 256 256" height="512" viewBox="0 0 256 256" width="512" xmlns="http://www.w3.org/2000/svg"><g id="Layer_60"><g><g fill="#fff"><path d="m41.8 244v1.5c0 4.4 3.6 8 8 8s8-3.6 8-8v-1.5z"/><path d="m128.2 244v1.5c0 4.4 3.6 8 8 8s8-3.6 8-8v-1.5z"/><path d="m221.2 244v1.5c0 4.4 3.6 8 8 8s8-3.6 8-8v-1.5z"/></g><path d="m127.4 81.5h110.6c4.8 0 8.7 3.9 8.7 8.7v144.6c0 5.1-4.1 9.2-9.2 9.2h-110.1c-4.8 0-8.7-3.9-8.7-8.7v-145.1c0-4.8 3.9-8.7 8.7-8.7z" fill="#fff"/><path d="m118.7 232.5v2.3c0 4.8 3.9 9.2 8.7 9.2h110.6c4.8 0 8.7-4.4 8.7-9.2v-2.3z" fill="#fff"/><path d="m216.9 185.2c-2.3 0-4.2-1.9-4.3-4.3v-15.5c0-2.3 1.9-4.2 4.3-4.3h11.3c-6.6-25.1-32.3-40.1-57.4-33.4s-40.1 32.3-33.4 57.4c6.6 25.1 32.3 40.1 57.4 33.4 16.4-4.3 29.1-17.1 33.4-33.4h-11.3z" fill="#c7d7e5"/><path d="m216.9 161.2h16.5c2.3 0 4.3 1.9 4.3 4.3v15.5c0 2.3-1.9 4.3-4.3 4.3h-16.5c-2.3 0-4.3-1.9-4.3-4.3v-15.5c0-2.4 1.9-4.3 4.3-4.3z" fill="#fff"/><path d="m216.9 185.2c-2.3 0-4.2-1.9-4.3-4.3v-15.5c0-2.3 1.9-4.2 4.3-4.3h.8c-6.6-19.3-27.7-29.6-47-23s-29.6 27.7-23 47 27.7 29.6 47 23c10.8-3.7 19.3-12.2 23-23h-.8z" fill="#3caadc"/><path d="m173 137.5c-3.9 1.1-7.6 2.8-11 5l51.3 51.3c1.8-2.7 3.3-5.6 4.3-8.7h-.8c-2.3 0-4.2-1.9-4.3-4.3v-3.8z" fill="#9be5f9"/><path d="m238 81.5h-110.6c-4.8 0-8.7 3.9-8.7 8.7v22.3h128v-22.3c0-4.8-3.9-8.7-8.7-8.7z" fill="#dae6f1"/><circle cx="191.9" cy="97" fill="#5290db" r="5"/><circle cx="210.2" cy="97" fill="#5290db" r="5"/><circle cx="228.5" cy="97" fill="#5290db" r="5"/><path d="m172.6 81.5h-45.2c-4.8 0-8.7 3.9-8.7 8.7v22.3h53.9z" fill="#29589f"/><path d="m128.7 81.5v18.5c0 1.4 1.1 2.5 2.5 2.5h29c1.4 0 2.5-1.1 2.5-2.5v-18.5z" fill="#5290db"/><path d="m128.2 244h-.8c-4.8 0-8.7-4.4-8.7-9.2v-122.3-22.3c0-4.8 3.9-8.7 8.7-8.7h24.2v-73.1c0-3.3-2.7-5.9-5.9-5.9h-104.9c-3.3 0-5.9 2.7-5.9 5.9v229.7c0 3.3 2.7 5.9 5.9 5.9z" fill="#c7d7e5"/><path d="m128.2 244h-.8c-4.8 0-8.7-4.4-8.7-9.2v-112h-83.9v115.3c0 3.3 2.7 5.9 5.9 5.9z" fill="#c7d7e5"/><path d="m128.2 244h-.8c-4.8 0-8.7-4.4-8.7-9.2v-10.2h-83.9v13.5c0 3.3 2.7 5.9 5.9 5.9z" fill="#5290db"/><path d="m50.1 74.9h5.4c1.3 0 2.3 1 2.3 2.3v32.4c0 1.3-1 2.3-2.3 2.3h-5.4c-1.3 0-2.3-1-2.3-2.3v-32.5c0-1.2 1-2.2 2.3-2.2z" fill="#edf4fc"/><path d="m50.1 133.7h5.4c1.3 0 2.3 1 2.3 2.3v32.4c0 1.3-1 2.3-2.3 2.3h-5.4c-1.3 0-2.3-1-2.3-2.3v-32.4c0-1.2 1-2.3 2.3-2.3z" fill="#edf4fc"/><path d="m40.8 2.5c-3.3 0-5.9 2.7-5.9 5.9v15.6h32.3c13.1 0 25-7.8 30.3-19.8l.7-1.7z" fill="#9be5f9"/><circle cx="166.8" cy="34.7" fill="#fc657e" r="3.1"/><circle cx="209.8" cy="67.4" fill="#70d6f9" r="3.1"/><circle cx="19.8" cy="176.4" fill="#f5c84c" r="3.1"/><path d="m186.6 57.9c-4.3.8-7.8 4.1-8.6 8.5 0 .1-.1.2-.2.2s-.1-.1-.2-.2c-.9-4.3-4.3-7.7-8.6-8.5-.1 0-.2-.1-.2-.2s.1-.1.2-.2c4.3-.8 7.8-4.1 8.6-8.5 0-.1.1-.2.2-.2s.1.1.2.2c.9 4.3 4.3 7.7 8.6 8.5.1 0 .2.1.2.2-.1.1-.1.2-.2.2z" fill="#f5c84c"/><path d="m19.7 149h-2.1v-2.1c0-1.6-1.3-2.9-2.9-2.9s-2.9 1.3-2.9 2.9v2.1h-2.1c-1.6 0-2.9 1.3-2.9 2.9s1.3 2.9 2.9 2.9h2.1v2.1c0 1.6 1.3 2.9 2.9 2.9s2.9-1.3 2.9-2.9v-2.1h2.1c1.6 0 2.9-1.3 2.9-2.9s-1.3-2.9-2.9-2.9z" fill="#87d147"/><path d="m182.7 222.7c21.7 0 40.9-14.2 47.3-35h3.3c3.7 0 6.7-3 6.8-6.8v-15.5c0-3.7-3-6.7-6.8-6.8h-3.3c-8-26.1-35.7-40.8-61.8-32.8s-40.8 35.7-32.8 61.8c6.4 20.9 25.6 35.1 47.3 35.1zm52.4-57.3v15.5c0 1-.8 1.7-1.8 1.8h-16.5c-1 0-1.7-.8-1.8-1.8v-15.5c0-1 .8-1.8 1.8-1.8h16.5c1 .1 1.8.9 1.8 1.8zm-73.3-19.6 48.3 48.3c-11.6 15.1-33.2 18-48.3 6.5-15.1-11.6-18-33.2-6.5-48.3 1.9-2.5 4-4.7 6.5-6.5zm10.5-5.5 37.8 37.8v2.8c0 2.7 1.6 5.2 4.1 6.2-.3.6-.9 1.9-1.4 2.7l-46.8-46.8c2-1.1 4.1-2 6.3-2.7zm12.1-1.6 25.8 25.8c0 .3-.1.6-.1.9v5.6l-32-32c2.1-.3 4.2-.4 6.3-.3zm29.9 20.5c-.5.2-1 .5-1.5.9l-19.8-19.9c9.5 3 17.2 9.9 21.3 19zm-31.6-30.5c19 0 35.9 12.1 42.1 30h-5.3c-5.6-14.2-18.8-23.8-34-24.9-.9-.1-1.8-.1-2.7-.1-21.8 0-39.5 17.7-39.5 39.5s17.7 39.5 39.5 39.5c16.2 0 30.8-9.9 36.8-25h5.3c-8 23.2-33.3 35.6-56.6 27.6s-35.6-33.3-27.6-56.6c6.1-18 23-30 42-30z"/><path d="m191.9 104.5c4.1 0 7.5-3.4 7.5-7.5s-3.4-7.5-7.5-7.5-7.5 3.4-7.5 7.5 3.3 7.5 7.5 7.5zm0-10c1.4 0 2.5 1.1 2.5 2.5s-1.1 2.5-2.5 2.5-2.5-1.1-2.5-2.5c0-1.4 1.1-2.5 2.5-2.5z"/><path d="m210.2 104.5c4.1 0 7.5-3.4 7.5-7.5s-3.4-7.5-7.5-7.5-7.5 3.4-7.5 7.5 3.4 7.5 7.5 7.5zm0-10c1.4 0 2.5 1.1 2.5 2.5s-1.1 2.5-2.5 2.5-2.5-1.1-2.5-2.5c0-1.4 1.1-2.5 2.5-2.5z"/><path d="m228.5 104.5c4.1 0 7.5-3.4 7.5-7.5s-3.4-7.5-7.5-7.5-7.5 3.4-7.5 7.5 3.4 7.5 7.5 7.5zm0-10c1.4 0 2.5 1.1 2.5 2.5s-1.1 2.5-2.5 2.5-2.5-1.1-2.5-2.5c0-1.4 1.1-2.5 2.5-2.5z"/><path d="m145.7 0h-104.9c-4.7 0-8.4 3.8-8.4 8.4v229.7c0 4.1 3 7.6 7 8.3.5 5.8 5.5 10.1 11.3 9.6 5.1-.4 9.1-4.4 9.6-9.4h65.5c.6 5.8 5.7 10 11.4 9.4 5-.5 9-4.4 9.4-9.4h72.1c.6 5.8 5.7 10 11.4 9.4 5.1-.5 9-4.5 9.4-9.6 5.6-1.1 9.6-5.9 9.6-11.6v-144.6c0-6.2-5-11.2-11.2-11.2h-83.9v-70.6c.1-4.6-3.7-8.4-8.3-8.4zm3.4 8.4v70.6h-21.7c-6.2 0-11.2 5-11.2 11.2v30h-78.9v-93.7h29.8c24.2 0 32.6-21.4 32.7-21.5h45.9c1.9 0 3.4 1.5 3.4 3.4zm95.1 106.6v115h-123v-115zm-6.2 126.5h-109.8c-.4-.1-5.9.2-6.9-5.7-.1-.3-.1-.6-.1-.9h123c-.1 3.6-3.1 6.6-6.2 6.6zm-200.7-116.2h78.9v96.8h-78.9zm3.5-120.3h53.5c-5.3 10.1-15.8 16.5-27.2 16.5h-29.8v-13c0-2 1.6-3.5 3.5-3.5zm9 246c-2.6 0-4.9-1.9-5.4-4.5h10.8c-.5 2.6-2.8 4.5-5.4 4.5zm-9-9.5c-1.9 0-3.4-1.5-3.4-3.4v-11h78.9v5.4c.2 1.1-.7 4.9 2.1 9zm95.4 9.5c-2.6 0-4.9-1.9-5.4-4.5h10.8c-.5 2.6-2.7 4.5-5.4 4.5zm93 0c-2.6 0-4.9-1.9-5.4-4.5h10.8c-.5 2.6-2.7 4.5-5.4 4.5zm15-160.8v19.8h-69.1v-26h62.9c3.4 0 6.2 2.8 6.2 6.2zm-74.1 19.8h-48.9v-19.8c0-3 2.1-5.5 5-6.1v15.9c0 2.7 2.2 5 5 5h29c2.7 0 5-2.2 5-5v-16h5zm-10-10h-28.9v-16h28.9z"/><path d="m55.5 72.4h-5.4c-2.6 0-4.8 2.1-4.8 4.8v32.4c0 2.6 2.1 4.8 4.8 4.8h5.4c2.6 0 4.8-2.1 4.8-4.8v-32.5c0-2.6-2.2-4.7-4.8-4.7zm-.2 36.9h-5v-31.9h5z"/><path d="m55.5 131.2h-5.4c-2.6 0-4.8 2.1-4.8 4.8v32.4c0 2.6 2.1 4.8 4.8 4.8h5.4c2.6 0 4.8-2.1 4.8-4.8v-32.4c0-2.6-2.2-4.8-4.8-4.8zm-.2 37h-5v-31.9h5z"/></g></g></svg>